<?xml version="1.0" encoding="utf-8"?>
<!-- Generator: Adobe Illustrator 26.0.2, SVG Export Plug-In . SVG Version: 6.00 Build 0)  -->
<svg version="1.1" id="Слой_1" xmlns="http://www.w3.org/2000/svg" xmlns:xlink="http://www.w3.org/1999/xlink" x="0px" y="0px"
	 viewBox="0 0 189.3 71" style="enable-background:new 0 0 189.3 71;" xml:space="preserve">
<style type="text/css">
	.st0{fill:#0D0E19;}
</style>
<g>
	<path class="st0" d="M123.8,56.7h-13.9l-9.3-12.4V14.2h8V49h16.5V14.2h8v30.1L123.8,56.7z"/>
	<path class="st0" d="M92.3,25.6L81.2,14.2H67.4l-7.6,8l-3.4,3.2v19l11,12.2h14l10.8-11.9V25.6z M64.4,49l0-27l19.9,0l0,27L64.4,49z
		"/>
	<polygon class="st0" points="37.4,14.2 22.6,14.2 22.6,22.2 14.6,22.2 14.6,56.7 22.6,56.7 22.6,22.2 40.8,22.2 40.8,56.7 
		48.8,56.7 48.8,26.2 	"/>
	<path class="st0" d="M164.9,14.2h-13.4l-9.8,11.5v31h8V49h17.1v7.7h8V25.8L164.9,14.2z M149.7,41.3V22h17.1v19.3H149.7z"/>
</g>
</svg>
